<svg width="16" height="16" viewBox="0 0 16 16" fill="none" xmlns="http://www.w3.org/2000/svg">
<path fill-rule="evenodd" clip-rule="evenodd" d="M7.70996 3H14.5L15.01 3.5V7H14V5.98999H7.68994L6.82996 6.84998L6.47998 7H1.98999V7.48999V11.49V13H7V14H1.51001L1.01001 13.5V6.5V2.5L1.51001 2H6.51001L6.85999 2.15002L7.70996 3ZM7.48999 5H13.99L14 4.01001H7.5L7.14001 3.85999L6.29004 3.01001H2V6.01001H6.28003L7.14001 5.15002L7.48999 5Z" fill="white"/>
<path d="M15.0048 9.74019C15.0059 9.50896 14.9426 9.28199 14.8221 9.08467C14.7015 8.88736 14.5284 8.72748 14.3222 8.62294C14.1159 8.51839 13.8847 8.4733 13.6542 8.49272C13.4238 8.51213 13.2034 8.59528 13.0175 8.73286C12.8317 8.87057 12.6879 9.05727 12.6022 9.27207C12.5166 9.48687 12.4924 9.72128 12.5324 9.94905C12.5724 10.1768 12.675 10.389 12.8287 10.5617C12.9824 10.7345 13.1812 10.861 13.4028 10.9272C13.3211 11.0935 13.1945 11.2338 13.0374 11.3321C12.8803 11.4305 12.6992 11.483 12.5138 11.4839H11.5168C11.148 11.4851 10.7929 11.6235 10.5205 11.8722V9.46619C10.823 9.40448 11.0918 9.23266 11.2747 8.98403C11.4577 8.7354 11.5419 8.42768 11.5109 8.12053C11.4799 7.81339 11.3359 7.5287 11.1069 7.32166C10.8779 7.11463 10.5802 7 10.2715 7C9.96279 7 9.66508 7.11463 9.43609 7.32166C9.2071 7.5287 9.06315 7.81339 9.03213 8.12053C9.00112 8.42768 9.08527 8.7354 9.26825 8.98403C9.45124 9.23266 9.72002 9.40448 10.0225 9.46619V12.5052C9.72058 12.5629 9.4502 12.729 9.26237 12.9723C9.07453 13.2156 8.98221 13.5193 9.00284 13.826C9.02346 14.1326 9.1556 14.4212 9.37432 14.6371C9.59304 14.8531 9.88323 14.9816 10.1902 14.9983C10.4971 15.015 10.7995 14.9189 11.0404 14.728C11.2813 14.5371 11.444 14.2646 11.4979 13.962C11.5517 13.6593 11.493 13.3475 11.3327 13.0852C11.1724 12.8229 10.9217 12.6283 10.6278 12.5382C10.7098 12.3721 10.8364 12.2321 10.9935 12.1339C11.1506 12.0358 11.3319 11.9834 11.5172 11.9825H12.5138C12.8247 11.981 13.1273 11.8826 13.3796 11.7011C13.6319 11.5195 13.8213 11.2638 13.9215 10.9695C14.2202 10.9303 14.4945 10.7842 14.6937 10.5583C14.8929 10.3323 15.0034 10.0414 15.0048 9.74019ZM9.52417 8.24553C9.52417 8.14738 9.5435 8.0502 9.58105 7.95953C9.61861 7.86886 9.67366 7.78648 9.74306 7.71708C9.81245 7.64769 9.89484 7.59264 9.98551 7.55508C10.0762 7.51752 10.1734 7.49819 10.2715 7.49819C10.3696 7.49819 10.4668 7.51752 10.5575 7.55508C10.6482 7.59264 10.7305 7.64769 10.7999 7.71708C10.8693 7.78648 10.9244 7.86886 10.9619 7.95953C10.9995 8.0502 11.0188 8.14738 11.0188 8.24553C11.0188 8.44373 10.9401 8.63382 10.7999 8.77397C10.6598 8.91412 10.4697 8.99286 10.2715 8.99286C10.0733 8.99286 9.88321 8.91412 9.74306 8.77397C9.6029 8.63382 9.52417 8.44373 9.52417 8.24553ZM11.0188 13.7259C11.0188 13.824 10.9995 13.9212 10.9619 14.0119C10.9244 14.1025 10.8693 14.1849 10.7999 14.2543C10.7305 14.3237 10.6482 14.3787 10.5575 14.4163C10.4668 14.4539 10.3696 14.4732 10.2715 14.4732C10.1734 14.4732 10.0762 14.4539 9.98551 14.4163C9.89484 14.3787 9.81245 14.3237 9.74306 14.2543C9.67366 14.1849 9.61861 14.1025 9.58105 14.0119C9.5435 13.9212 9.52417 13.824 9.52417 13.7259C9.52417 13.5277 9.6029 13.3376 9.74306 13.1974C9.88321 13.0573 10.0733 12.9785 10.2715 12.9785C10.4697 12.9785 10.6598 13.0573 10.7999 13.1974C10.9401 13.3376 11.0188 13.5277 11.0188 13.7259ZM13.7592 10.4875C13.5609 10.4875 13.3708 10.4088 13.2306 10.2686C13.0904 10.1284 13.0117 9.93828 13.0117 9.74003C13.0117 9.54178 13.0904 9.35165 13.2306 9.21146C13.3708 9.07128 13.5609 8.99253 13.7592 8.99253C13.9574 8.99253 14.1475 9.07128 14.2877 9.21146C14.4279 9.35165 14.5067 9.54178 14.5067 9.74003C14.5067 9.93828 14.4279 10.1284 14.2877 10.2686C14.1475 10.4088 13.9574 10.4875 13.7592 10.4875Z" fill="white" stroke="white" stroke-width="0.5"/>
</svg>
